<?xml version="1.0" encoding="UTF-8" standalone="no"?>
<svg width="199px" height="26px" viewBox="0 0 199 26" version="1.1" xmlns="http://www.w3.org/2000/svg" xmlns:xlink="http://www.w3.org/1999/xlink" xmlns:sketch="http://www.bohemiancoding.com/sketch/ns">
    <!-- Generator: Sketch 3.4 (15588) - http://www.bohemiancoding.com/sketch -->
    <title>Group</title>
    <desc>Created with Sketch.</desc>
    <defs></defs>
    <g id="Welcome" stroke="none" stroke-width="1" fill="none" fill-rule="evenodd" sketch:type="MSPage">
        <g id="Group" sketch:type="MSLayerGroup">
            <path d="M47.719999,7.34 C47.3999974,7.273333 47.0966671,7.1866672 46.809999,7.08 C46.5233309,6.9733328 46.2666668,6.8666672 46.039999,6.76 L46.039999,6 L51.119999,6 L51.119999,6.76 C50.9599982,6.8666672 50.7500003,6.9733328 50.489999,7.08 C50.2299977,7.1866672 49.9600004,7.273333 49.679999,7.34 L45.079999,20 L43.099999,20.24 L37.939999,7.34 C37.673331,7.273333 37.406667,7.1900005 37.139999,7.09 C36.873331,6.9899995 36.64,6.8800006 36.439999,6.76 L36.439999,6 L43.099999,6 L43.099999,6.76 C42.8733312,6.8666672 42.6200004,6.9733328 42.339999,7.08 C42.0599976,7.1866672 41.7666672,7.273333 41.459999,7.34 L44.259999,15.22 L44.719999,17.1 L44.759999,17.1 L45.199999,15.18 L47.719999,7.34 Z M58.7933325,20 L52.5533325,20 L52.5533325,19.24 C53.0866685,18.9466652 53.6266631,18.7533338 54.1733325,18.66 L54.1733325,7.34 C53.9066645,7.2999998 53.6266673,7.2266672 53.3333325,7.12 C53.0399977,7.0133328 52.7800003,6.893334 52.5533325,6.76 L52.5533325,6 L58.7933325,6 L58.7933325,6.76 C58.5533313,6.9066674 58.2900006,7.0299995 58.0033325,7.13 C57.7166644,7.2300005 57.4400005,7.2999998 57.1733325,7.34 L57.1733325,18.66 C57.4400005,18.7133336 57.7166644,18.7866662 58.0033325,18.88 C58.2900006,18.9733338 58.5533313,19.0933326 58.7933325,19.24 L58.7933325,20 Z M70.026666,6 L74.986666,6 L74.986666,6.76 C74.7333314,6.960001 74.4533342,7.1366659 74.146666,7.29 C73.8399978,7.4433341 73.553334,7.5599996 73.286666,7.64 L73.286666,20.24 L71.586666,20.24 L64.526666,10.04 L63.726666,8.5 L63.666666,8.5 L63.846666,10.1 L63.846666,18.44 C64.113334,18.506667 64.4099977,18.6166659 64.736666,18.77 C65.0633343,18.9233341 65.3399982,19.0799992 65.566666,19.24 L65.566666,20 L60.626666,20 L60.626666,19.24 C60.8666672,19.0799992 61.1299979,18.9300007 61.416666,18.79 C61.7033341,18.6499993 61.9999978,18.5333338 62.306666,18.44 L62.306666,7.52 C62.039998,7.4133328 61.773334,7.293334 61.506666,7.16 C61.239998,7.026666 61.0000004,6.8866674 60.786666,6.74 L60.786666,6 L65.106666,6 L70.846666,14.32 L71.766666,16.04 L71.846666,16.04 L71.746666,14.32 L71.746666,7.64 C71.4266644,7.5333328 71.1166675,7.4033341 70.816666,7.25 C70.5166645,7.0966659 70.2533338,6.9333342 70.026666,6.76 L70.026666,6 Z M76.9999995,13 C76.9999995,11.9599948 77.1466647,10.9966711 77.4399995,10.11 C77.7333343,9.2233289 78.1666633,8.4566699 78.7399995,7.81 C79.3133357,7.1633301 80.0199953,6.6600018 80.8599995,6.3 C81.7000037,5.9399982 82.6666607,5.76 83.7599995,5.76 C84.8533383,5.76 85.8199953,5.9399982 86.6599995,6.3 C87.5000037,6.6600018 88.20333,7.1633301 88.7699995,7.81 C89.336669,8.4566699 89.7666647,9.2233289 90.0599995,10.11 C90.3533343,10.9966711 90.4999995,11.9599948 90.4999995,13 C90.4999995,14.0400052 90.3533343,15.0033289 90.0599995,15.89 C89.7666647,16.7766711 89.336669,17.5433301 88.7699995,18.19 C88.20333,18.8366699 87.5000037,19.3399982 86.6599995,19.7 C85.8199953,20.0600018 84.8533383,20.24 83.7599995,20.24 C82.6666607,20.24 81.7000037,20.0600018 80.8599995,19.7 C80.0199953,19.3399982 79.3133357,18.8366699 78.7399995,18.19 C78.1666633,17.5433301 77.7333343,16.7766711 77.4399995,15.89 C77.1466647,15.0033289 76.9999995,14.0400052 76.9999995,13 L76.9999995,13 Z M80.3999995,13 C80.3999995,13.8533376 80.4666655,14.6433297 80.5999995,15.37 C80.7333335,16.0966703 80.9433314,16.7233307 81.2299995,17.25 C81.5166676,17.7766693 81.8833306,18.1899985 82.3299995,18.49 C82.7766684,18.7900015 83.3133297,18.94 83.9399995,18.94 C84.5133357,18.94 84.9999975,18.7900015 85.3999995,18.49 C85.8000015,18.1899985 86.1266649,17.7766693 86.3799995,17.25 C86.6333341,16.7233307 86.8166656,16.0966703 86.9299995,15.37 C87.0433334,14.6433297 87.0999995,13.8533376 87.0999995,13 C87.0999995,12.1466624 87.0366668,11.3566703 86.9099995,10.63 C86.7833322,9.9033297 86.5833342,9.2766693 86.3099995,8.75 C86.0366648,8.2233307 85.6766684,7.8100015 85.2299995,7.51 C84.7833306,7.2099985 84.2400027,7.06 83.5999995,7.06 C82.9866631,7.06 82.4733349,7.2099985 82.0599995,7.51 C81.6466641,7.8100015 81.3166674,8.2233307 81.0699995,8.75 C80.8233316,9.2766693 80.65,9.9033297 80.5499995,10.63 C80.449999,11.3566703 80.3999995,12.1466624 80.3999995,13 L80.3999995,13 Z M101.833333,20 L94.953333,20 L94.953333,19.24 C95.220001,19.1333328 95.5233313,19.0233339 95.863333,18.91 C96.2033347,18.7966661 96.5466646,18.7133336 96.893333,18.66 L96.893333,7.3 L94.573333,7.3 L93.293333,10.72 L92.473333,10.72 C92.4199994,10.453332 92.3666666,10.1133354 92.313333,9.7 C92.2599994,9.2866646 92.2133332,8.8600022 92.173333,8.42 C92.1333328,7.9799978 92.0999998,7.5433355 92.073333,7.11 C92.0466662,6.6766645 92.033333,6.3066682 92.033333,6 L104.773333,6 C104.773333,6.3200016 104.76,6.6933312 104.733333,7.12 C104.706666,7.5466688 104.673333,7.9799978 104.633333,8.42 C104.593333,8.8600022 104.546667,9.2833313 104.493333,9.69 C104.439999,10.0966687 104.386667,10.4399986 104.333333,10.72 L103.493333,10.72 L102.213333,7.3 L99.893333,7.3 L99.893333,18.66 C100.240001,18.726667 100.583331,18.8066662 100.923333,18.9 C101.263335,18.9933338 101.566665,19.106666 101.833333,19.24 L101.833333,20 Z M116.826667,6 C116.8,6.600003 116.753334,7.2199968 116.686667,7.86 C116.62,8.5000032 116.533334,9.0999972 116.426667,9.66 L115.606667,9.66 L114.686667,7.3 L110.946667,7.3 L110.946667,12.2 L113.386667,12.2 L114.266667,10.66 L114.906667,10.66 C114.973334,11.3133366 115.006667,12.039996 115.006667,12.84 C115.006667,13.640004 114.973334,14.3866632 114.906667,15.08 L114.266667,15.08 L113.386667,13.5 L110.946667,13.5 L110.946667,18.7 L114.846667,18.7 L115.906667,16.16 L116.726667,16.16 C116.78,16.4133346 116.833333,16.6999984 116.886667,17.02 C116.94,17.3400016 116.983333,17.6699983 117.016667,18.01 C117.05,18.3500017 117.076666,18.6933316 117.096667,19.04 C117.116667,19.3866684 117.126667,19.7066652 117.126667,20 L106.306667,20 L106.306667,19.24 C106.533334,19.1199994 106.786665,19.0066672 107.066667,18.9 C107.346668,18.7933328 107.639998,18.7133336 107.946667,18.66 L107.946667,7.34 C107.679999,7.2866664 107.396668,7.2100005 107.096667,7.11 C106.796665,7.0099995 106.533334,6.893334 106.306667,6.76 L106.306667,6 L116.826667,6 Z M129.62,15.8 L130.44,15.8 C130.493334,16.0133344 130.543333,16.2699985 130.59,16.57 C130.636667,16.8700015 130.676667,17.1899983 130.71,17.53 C130.743334,17.8700017 130.766667,18.206665 130.78,18.54 C130.793333,18.873335 130.8,19.173332 130.8,19.44 C130.333331,19.7333348 129.750003,19.9399994 129.05,20.06 C128.349997,20.1800006 127.633337,20.24 126.9,20.24 C125.793328,20.24 124.790004,20.1033347 123.89,19.83 C122.989995,19.5566653 122.223336,19.1233363 121.59,18.53 C120.956663,17.9366637 120.466668,17.1833379 120.12,16.27 C119.773332,15.3566621 119.6,14.2600064 119.6,12.98 C119.6,11.713327 119.789998,10.6233379 120.17,9.71 C120.550002,8.7966621 121.059997,8.0466696 121.7,7.46 C122.340003,6.8733304 123.083329,6.4433347 123.93,6.17 C124.776671,5.8966653 125.666662,5.76 126.6,5.76 C127.480004,5.76 128.276663,5.8233327 128.99,5.95 C129.703337,6.0766673 130.286664,6.2466656 130.74,6.46 C130.74,6.6733344 130.73,6.946665 130.71,7.28 C130.69,7.613335 130.656667,7.9633315 130.61,8.33 C130.563333,8.6966685 130.51,9.0566649 130.45,9.41 C130.39,9.7633351 130.333334,10.0599988 130.28,10.3 L129.44,10.3 L128.34,7.28 C128.219999,7.213333 128.026668,7.1600002 127.76,7.12 C127.493332,7.0799998 127.220001,7.06 126.94,7.06 C126.393331,7.06 125.880002,7.1699989 125.4,7.39 C124.919998,7.6100011 124.493335,7.9599976 124.12,8.44 C123.746665,8.9200024 123.453334,9.5366629 123.24,10.29 C123.026666,11.0433371 122.92,11.9466614 122.92,13 C122.92,14.9066762 123.299996,16.3733282 124.06,17.4 C124.820004,18.4266718 125.853327,18.94 127.16,18.94 C127.533335,18.94 127.849999,18.9100003 128.11,18.85 C128.370001,18.7899997 128.546666,18.7066672 128.64,18.6 L129.62,15.8 Z M137.153333,20 L132.213333,20 L132.213333,19.24 C132.426668,19.106666 132.656666,18.9900005 132.903333,18.89 C133.150001,18.7899995 133.393332,18.7133336 133.633333,18.66 L138.793333,5.76 L140.273333,5.76 L145.293333,18.66 C145.560001,18.7133336 145.826665,18.7899995 146.093333,18.89 C146.360001,18.9900005 146.593332,19.106666 146.793333,19.24 L146.793333,20 L140.533333,20 L140.533333,19.24 C140.786668,19.1199994 141.059999,19.0066672 141.353333,18.9 C141.646668,18.7933328 141.926665,18.7133336 142.193333,18.66 L141.033333,15.48 L136.593333,15.48 L135.413333,18.66 C136.02667,18.7400004 136.606664,18.9333318 137.153333,19.24 L137.153333,20 Z M137.073333,14.18 L140.613333,14.18 L139.313333,10.36 L138.933333,8.64 L138.893333,8.64 L138.453333,10.4 L137.073333,14.18 Z M158.566667,16.36 L159.086667,16.36 C159.153334,16.7333352 159.213333,17.2033305 159.266667,17.77 C159.320001,18.3366695 159.333334,18.886664 159.306667,19.42 C159.106666,19.5800008 158.866668,19.7099995 158.586667,19.81 C158.306666,19.9100005 158.010002,19.993333 157.696667,20.06 C157.383332,20.126667 157.063335,20.1733332 156.736667,20.2 C156.409999,20.2266668 156.100002,20.24 155.806667,20.24 C154.686661,20.24 153.686671,20.0966681 152.806667,19.81 C151.926663,19.5233319 151.183337,19.0866696 150.576667,18.5 C149.969997,17.9133304 149.503335,17.1633379 149.176667,16.25 C148.849999,15.3366621 148.686667,14.2533396 148.686667,13 C148.686667,11.6933268 148.866665,10.5833379 149.226667,9.67 C149.586669,8.7566621 150.073331,8.0100029 150.686667,7.43 C151.300003,6.8499971 152.01333,6.426668 152.826667,6.16 C153.640004,5.893332 154.493329,5.76 155.386667,5.76 C156.266671,5.76 157.006664,5.8166661 157.606667,5.93 C158.20667,6.0433339 158.733331,6.2133322 159.186667,6.44 C159.186667,6.6533344 159.18,6.9033319 159.166667,7.19 C159.153334,7.4766681 159.133334,7.7799984 159.106667,8.1 C159.08,8.4200016 159.046667,8.7333318 159.006667,9.04 C158.966667,9.3466682 158.926667,9.6266654 158.886667,9.88 L158.366667,9.88 L157.326667,7 C157.18,6.9199996 156.936669,6.8666668 156.596667,6.84 C156.256665,6.8133332 155.920002,6.8 155.586667,6.8 C154.919997,6.8 154.290003,6.9233321 153.696667,7.17 C153.103331,7.4166679 152.583336,7.7966641 152.136667,8.31 C151.689998,8.8233359 151.333335,9.4699961 151.066667,10.25 C150.799999,11.0300039 150.666667,11.9466614 150.666667,13 C150.666667,13.9466714 150.786666,14.8033295 151.026667,15.57 C151.266668,16.3366705 151.613331,16.9899973 152.066667,17.53 C152.520003,18.0700027 153.07333,18.4833319 153.726667,18.77 C154.380004,19.0566681 155.119996,19.2 155.946667,19.2 C156.386669,19.2 156.753332,19.166667 157.046667,19.1 C157.340002,19.033333 157.533333,18.9466672 157.626667,18.84 L158.566667,16.36 Z M161.92,6 L167.4,6 L167.4,6.58 C167.079999,6.7000006 166.760002,6.8033329 166.44,6.89 C166.119999,6.9766671 165.800002,7.0399998 165.48,7.08 L165.48,18.96 L170.08,18.96 L171.26,15.74 L171.78,15.74 C171.820001,16.0200014 171.856667,16.3433315 171.89,16.71 C171.923334,17.0766685 171.95,17.4566647 171.97,17.85 C171.990001,18.2433353 172,18.6266648 172,19 C172,19.3733352 171.993334,19.7066652 171.98,20 L161.92,20 L161.92,19.42 C162.240002,19.2733326 162.533332,19.166667 162.8,19.1 C163.066668,19.033333 163.319999,18.9800002 163.56,18.94 L163.56,7.08 C163.253332,7.0266664 162.960002,6.9566671 162.68,6.87 C162.399999,6.7833329 162.146668,6.6866672 161.92,6.58 L161.92,6 Z M173.353334,6 L178.433334,6 L178.433334,6.58 C178.179999,6.6866672 177.926669,6.7799996 177.673334,6.86 C177.419999,6.9400004 177.166669,7.013333 176.913334,7.08 L176.913334,15.26 C176.913334,15.9666702 176.99,16.5566643 177.143334,17.03 C177.296668,17.5033357 177.519999,17.8833319 177.813334,18.17 C178.106669,18.4566681 178.469998,18.6633327 178.903334,18.79 C179.336669,18.9166673 179.826665,18.98 180.373334,18.98 C181.426673,18.98 182.246664,18.6900029 182.833334,18.11 C183.420004,17.5299971 183.713334,16.57334 183.713334,15.24 L183.713334,7.26 C183.406666,7.1533328 183.120002,7.0433339 182.853334,6.93 C182.586666,6.8166661 182.346668,6.7000006 182.133334,6.58 L182.133334,6 L186.393334,6 L186.393334,6.58 C186.139999,6.7266674 185.883335,6.8599994 185.623334,6.98 C185.363333,7.1000006 185.100002,7.193333 184.833334,7.26 L184.833334,15.28 C184.833334,16.1333376 184.720002,16.8666636 184.493334,17.48 C184.266666,18.0933364 183.950003,18.599998 183.543334,19 C183.136665,19.400002 182.643337,19.6966657 182.063334,19.89 C181.483331,20.0833343 180.840004,20.18 180.133334,20.18 C178.466659,20.18 177.193338,19.8033371 176.313334,19.05 C175.43333,18.2966629 174.993334,17.1400078 174.993334,15.58 L174.993334,7.08 C174.446665,6.9999996 173.900003,6.8333346 173.353334,6.58 L173.353334,6 Z M188.006667,20 L188.006667,19.42 C188.540003,19.1666654 189.086665,19.006667 189.646667,18.94 L189.646667,7.08 C189.379999,7.0266664 189.106669,6.9566671 188.826667,6.87 C188.546666,6.7833329 188.273335,6.6866672 188.006667,6.58 L188.006667,6 L190.126667,6 C190.380002,6 190.623333,5.9933334 190.856667,5.98 C191.090002,5.9666666 191.333333,5.9533334 191.586667,5.94 C191.840002,5.9266666 192.113333,5.9133334 192.406667,5.9 C192.700002,5.8866666 193.033332,5.88 193.406667,5.88 C193.940003,5.88 194.483331,5.9233329 195.036667,6.01 C195.590004,6.0966671 196.089999,6.2599988 196.536667,6.5 C196.983336,6.7400012 197.346666,7.0766645 197.626667,7.51 C197.906669,7.9433355 198.046667,8.5066632 198.046667,9.2 C198.046667,9.5466684 197.993335,9.8933316 197.886667,10.24 C197.78,10.5866684 197.616669,10.9099985 197.396667,11.21 C197.176666,11.5100015 196.900002,11.7733322 196.566667,12 C196.233332,12.2266678 195.840003,12.3933328 195.386667,12.5 L195.386667,12.58 C195.786669,12.646667 196.183332,12.7599992 196.576667,12.92 C196.970003,13.0800008 197.319999,13.2966653 197.626667,13.57 C197.933336,13.8433347 198.183333,14.179998 198.376667,14.58 C198.570002,14.980002 198.666667,15.4599972 198.666667,16.02 C198.666667,16.7400036 198.506669,17.3599974 198.186667,17.88 C197.866666,18.4000026 197.450003,18.826665 196.936667,19.16 C196.423332,19.493335 195.840004,19.7366659 195.186667,19.89 C194.533331,20.0433341 193.873337,20.12 193.206667,20.12 C192.739998,20.12 192.213337,20.1000002 191.626667,20.06 C191.039998,20.0199998 190.473337,20 189.926667,20 L188.006667,20 Z M193.346667,19.08 C193.82667,19.08 194.276665,19.0066674 194.696667,18.86 C195.11667,18.7133326 195.476666,18.5100013 195.776667,18.25 C196.076669,17.9899987 196.313333,17.6766685 196.486667,17.31 C196.660002,16.9433315 196.746667,16.5466688 196.746667,16.12 C196.746667,15.586664 196.643335,15.1433351 196.436667,14.79 C196.23,14.4366649 195.950003,14.1566677 195.596667,13.95 C195.243332,13.7433323 194.83667,13.6000004 194.376667,13.52 C193.916665,13.4399996 193.440003,13.4 192.946667,13.4 L191.446667,13.4 L191.446667,18.92 C191.633335,18.9733336 191.856666,19.0133332 192.116667,19.04 C192.376669,19.0666668 192.786665,19.08 193.346667,19.08 L193.346667,19.08 Z M192.446667,12.36 C192.673335,12.36 192.943333,12.3500001 193.256667,12.33 C193.570002,12.3099999 193.826666,12.2866668 194.026667,12.26 C194.640004,12.0466656 195.143332,11.7033357 195.536667,11.23 C195.930003,10.7566643 196.126667,10.2000032 196.126667,9.56 C196.126667,8.6799956 195.863337,8.0200022 195.336667,7.58 C194.809998,7.1399978 194.106672,6.92 193.226667,6.92 C192.813332,6.92 192.460002,6.9266666 192.166667,6.94 C191.873333,6.9533334 191.633335,6.9733332 191.446667,7 L191.446667,12.36 L192.446667,12.36 Z" id="VINOTECACLUB-Copy" fill="#222222" sketch:type="MSShapeGroup"></path>
            <ellipse id="Oval-3-Copy-3" fill="#F02563" sketch:type="MSShapeGroup" cx="14" cy="7" rx="7" ry="7"></ellipse>
            <ellipse id="Oval-3-Copy-4" fill="#DFC059" sketch:type="MSShapeGroup" cx="7" cy="19" rx="7" ry="7"></ellipse>
            <ellipse id="Oval-3-Copy-5" fill="#686CD2" sketch:type="MSShapeGroup" cx="21" cy="19" rx="7" ry="7"></ellipse>
        </g>
    </g>
</svg>